<svg width="64" height="14" viewBox="0 0 64 14" fill="none" xmlns="http://www.w3.org/2000/svg">
<path d="M1.26414 13.0794H2.63511V5.07851H5.5373V3.90243H2.61731V3.15402C2.61731 1.85321 3.15145 1.19389 4.21974 1.19389C4.70047 1.19389 5.05657 1.28299 5.55511 1.42555V0.231651C5.10999 0.0712774 4.68267 0 4.0417 0C3.20487 0 2.54609 0.231651 2.06536 0.712773C1.53122 1.24735 1.26414 2.0314 1.26414 3.08274V3.88461H0V5.07851H1.26414V13.0794Z" fill="#C6AAC6"/>
<path d="M10.6459 13.2932C13.4234 13.2932 15.471 11.1014 15.471 8.482V8.44636C15.471 5.84474 13.459 3.67078 10.6815 3.67078C7.88614 3.67078 5.87419 5.86256 5.87419 8.482V8.51764C5.87419 11.1193 7.88614 13.2932 10.6459 13.2932ZM10.6815 12.0637C8.74077 12.0637 7.28077 10.4599 7.28077 8.482V8.44636C7.28077 6.50405 8.65174 4.88249 10.6459 4.88249C12.5866 4.88249 14.0644 6.50405 14.0644 8.482V8.51764C14.0644 10.4421 12.6756 12.0637 10.6815 12.0637Z" fill="#C6AAC6"/>
<path d="M17.2868 13.0794H18.6578V9.4086C18.6578 6.62879 20.2958 5.18542 22.3078 5.18542H22.4146V3.70642C20.6697 3.65296 19.3344 4.73994 18.6578 6.2724V3.86679H17.2868V13.0794Z" fill="#C6AAC6"/>
<path d="M31.3718 13.2576C32.4935 13.2576 33.4015 12.919 34.1137 12.2241C34.8259 11.5113 35.2532 10.4243 35.2532 8.9453V0.605857H33.8288V8.96312C33.8288 10.9411 32.7962 11.9568 31.3896 11.9568C30.0898 11.9568 29.3064 11.3331 28.5408 10.1748L27.5259 11.048C28.3094 12.331 29.5023 13.2576 31.3718 13.2576Z" fill="#C6AAC6"/>
<path d="M40.4208 13.2754C42.0588 13.2754 43.1093 12.527 43.7503 11.6895V13.0794H45.0679V7.44848C45.0679 6.29022 44.7474 5.38144 44.1242 4.75776C43.4476 4.08063 42.4506 3.74206 41.1508 3.74206C39.7976 3.74206 38.8184 4.02717 37.8035 4.50829L38.213 5.63091C39.0676 5.22106 39.9223 4.95377 41.0084 4.95377C42.7354 4.95377 43.7503 5.8091 43.7503 7.4663V7.78704C42.9135 7.55539 42.1123 7.39502 40.9193 7.39502C38.5869 7.39502 36.9845 8.44636 36.9845 10.3708V10.4065C36.9845 12.3132 38.7115 13.2754 40.4208 13.2754ZM40.6879 12.1884C39.4593 12.1884 38.3732 11.5113 38.3732 10.353V10.3174C38.3732 9.15913 39.3347 8.41072 41.0618 8.41072C42.2013 8.41072 43.0737 8.60673 43.7681 8.80275V9.69371C43.7681 11.1549 42.3971 12.1884 40.6879 12.1884Z" fill="#C6AAC6"/>
<path d="M50.0545 13.1507H51.2652L55.2713 3.86679H53.7935L50.6776 11.5113L47.5796 3.86679H46.0662L50.0545 13.1507Z" fill="#C6AAC6"/>
<path d="M59.0463 13.2754C60.6843 13.2754 61.7348 12.527 62.3758 11.6895V13.0794H63.6934V7.44848C63.6934 6.29022 63.3729 5.38144 62.7497 4.75776C62.0731 4.08063 61.076 3.74206 59.7763 3.74206C58.4231 3.74206 57.4439 4.02717 56.429 4.50829L56.8385 5.63091C57.6931 5.22106 58.5478 4.95377 59.6339 4.95377C61.3609 4.95377 62.3758 5.8091 62.3758 7.4663V7.78704C61.539 7.55539 60.7378 7.39502 59.5448 7.39502C57.2124 7.39502 55.61 8.44636 55.61 10.3708V10.4065C55.61 12.3132 57.337 13.2754 59.0463 13.2754ZM59.3134 12.1884C58.0848 12.1884 56.9987 11.5113 56.9987 10.353V10.3174C56.9987 9.15913 57.9602 8.41072 59.6873 8.41072C60.8268 8.41072 61.6992 8.60673 62.3936 8.80275V9.69371C62.3936 11.1549 61.0226 12.1884 59.3134 12.1884Z" fill="#C6AAC6"/>
</svg>
