<svg width="93" height="14" viewBox="0 0 93 14" fill="none" xmlns="http://www.w3.org/2000/svg">
<path d="M1.26737 13.1021H2.64184V5.08733H5.55144V3.90921H2.62399V3.1595C2.62399 1.85643 3.1595 1.19597 4.23052 1.19597C4.71247 1.19597 5.06948 1.28522 5.56929 1.42802V0.232054C5.12303 0.0714012 4.69462 0 4.05201 0C3.21305 0 2.55259 0.232054 2.07063 0.714011C1.53512 1.24952 1.26737 2.03493 1.26737 3.0881V3.89136H0V5.08733H1.26737V13.1021Z" fill="#C6AAC6"/>
<path d="M10.7049 13.3163C13.4896 13.3163 15.5424 11.1207 15.5424 8.49673V8.46103C15.5424 5.85489 13.5253 3.67716 10.7406 3.67716C7.93815 3.67716 5.92107 5.87274 5.92107 8.49673V8.53243C5.92107 11.1386 7.93815 13.3163 10.7049 13.3163ZM10.7406 12.0846C8.79497 12.0846 7.33124 10.4781 7.33124 8.49673V8.46103C7.33124 6.51535 8.70571 4.89098 10.7049 4.89098C12.6506 4.89098 14.1322 6.51535 14.1322 8.49673V8.53243C14.1322 10.4603 12.7399 12.0846 10.7406 12.0846Z" fill="#C6AAC6"/>
<path d="M17.3947 13.1021H18.7692V9.42494C18.7692 6.6403 20.4114 5.19443 22.4285 5.19443H22.5356V3.71286C20.7862 3.65931 19.4475 4.74817 18.7692 6.2833V3.87351H17.3947V13.1021Z" fill="#C6AAC6"/>
<path d="M28.9376 13.1021H30.312V2.85604L38.3804 13.1021H39.5049V0.606909H38.1305V10.6209L30.2585 0.606909H28.9376V13.1021Z" fill="#C6AAC6"/>
<path d="M46.3831 13.3163C49.1677 13.3163 51.2205 11.1207 51.2205 8.49673V8.46103C51.2205 5.85489 49.2034 3.67716 46.4188 3.67716C43.6163 3.67716 41.5992 5.87274 41.5992 8.49673V8.53243C41.5992 11.1386 43.6163 13.3163 46.3831 13.3163ZM46.4188 12.0846C44.4731 12.0846 43.0094 10.4781 43.0094 8.49673V8.46103C43.0094 6.51535 44.3839 4.89098 46.3831 4.89098C48.3288 4.89098 49.8103 6.51535 49.8103 8.49673V8.53243C49.8103 10.4603 48.418 12.0846 46.4188 12.0846Z" fill="#C6AAC6"/>
<path d="M56.9463 13.2985C58.66 13.2985 59.7131 12.3524 60.4807 11.2457V13.1021H61.8552V0.0714012H60.4807V5.64069C59.7667 4.58752 58.66 3.67716 56.9463 3.67716C54.7329 3.67716 52.5373 5.48003 52.5373 8.47888V8.51458C52.5373 11.5491 54.7329 13.2985 56.9463 13.2985ZM57.1962 12.0668C55.4291 12.0668 53.9475 10.6923 53.9475 8.49673V8.46103C53.9475 6.22975 55.4112 4.90883 57.1962 4.90883C58.9099 4.90883 60.5342 6.33685 60.5342 8.46103V8.49673C60.5342 10.6209 58.9099 12.0668 57.1962 12.0668Z" fill="#C6AAC6"/>
<path d="M68.3232 13.3163C70.0904 13.3163 71.1971 12.638 72.1253 11.5848L71.2685 10.8173C70.5009 11.6027 69.6441 12.1203 68.3589 12.1203C66.7167 12.1203 65.3065 10.9958 65.1101 8.99654H72.4287C72.4466 8.83589 72.4466 8.74663 72.4466 8.55028C72.4466 5.85489 70.8758 3.67716 68.1447 3.67716C65.5742 3.67716 63.7178 5.81919 63.7178 8.47888V8.51458C63.7178 11.3706 65.8063 13.3163 68.3232 13.3163ZM65.1101 7.97907C65.3065 6.19405 66.4846 4.83742 68.109 4.83742C69.9654 4.83742 70.9115 6.319 71.0543 7.97907H65.1101Z" fill="#C6AAC6"/>
<path d="M77.0891 13.2806C78.2137 13.2806 79.1241 12.9415 79.8381 12.2453C80.5521 11.5313 80.9805 10.4424 80.9805 8.96084V0.606909H79.5525V8.97869C79.5525 10.9601 78.5172 11.9775 77.107 11.9775C75.8039 11.9775 75.0185 11.3528 74.2509 10.1925L73.2335 11.0672C74.0189 12.3524 75.2149 13.2806 77.0891 13.2806Z" fill="#C6AAC6"/>
<path d="M87.9603 13.2806C90.4415 13.2806 92.2265 11.8883 92.2265 9.74625V9.71055C92.2265 7.80057 90.9413 6.80095 88.1567 6.1762C85.3899 5.60499 84.7651 4.92668 84.7651 3.74856V3.71286C84.7651 2.57044 85.7826 1.69578 87.4248 1.69578C88.71 1.69578 89.8703 2.10633 91.0306 3.0524L91.8517 1.96353C90.5665 0.946064 89.2991 0.428406 87.4605 0.428406C85.0864 0.428406 83.3549 1.89213 83.3549 3.83781V3.87351C83.3549 5.92629 84.6759 6.85451 87.5498 7.47926C90.1738 8.05047 90.7985 8.69308 90.7985 9.85335V9.88905C90.7985 11.1207 89.7096 12.0132 88.0139 12.0132C86.2824 12.0132 85.0329 11.442 83.7298 10.2461L82.8551 11.2814C84.3546 12.638 85.9611 13.2806 87.9603 13.2806Z" fill="#C6AAC6"/>
</svg>
