<svg width="86" height="17" viewBox="0 0 86 17" fill="none" xmlns="http://www.w3.org/2000/svg">
<path d="M1.26738 13.1022H2.64185V5.08735H5.55146V3.90923H2.624V3.15951C2.624 1.85644 3.15951 1.19597 4.23053 1.19597C4.71249 1.19597 5.0695 1.28522 5.56931 1.42803V0.232055C5.12305 0.0714016 4.69464 0 4.05203 0C3.21306 0 2.5526 0.232055 2.07064 0.714015C1.53513 1.24952 1.26738 2.03494 1.26738 3.08811V3.89138H0V5.08735H1.26738V13.1022Z" fill="#C6AAC6"/>
<path d="M10.705 13.3164C13.4896 13.3164 15.5424 11.1208 15.5424 8.49677V8.46107C15.5424 5.85492 13.5253 3.67717 10.7407 3.67717C7.93819 3.67717 5.9211 5.87277 5.9211 8.49677V8.53247C5.9211 11.1386 7.93819 13.3164 10.705 13.3164ZM10.7407 12.0847C8.79501 12.0847 7.33128 10.4782 7.33128 8.49677V8.46107C7.33128 6.51538 8.70575 4.891 10.705 4.891C12.6507 4.891 14.1323 6.51538 14.1323 8.49677V8.53247C14.1323 10.4603 12.7399 12.0847 10.7407 12.0847Z" fill="#C6AAC6"/>
<path d="M17.3948 13.1022H18.7693V9.42499C18.7693 6.64033 20.4115 5.19445 22.4286 5.19445H22.5357V3.71287C20.7863 3.65932 19.4476 4.74819 18.7693 6.28332V3.87353H17.3948V13.1022Z" fill="#C6AAC6"/>
<path d="M28.9377 13.1022H30.3479V8.69312H33.3824C36.0421 8.69312 38.2913 7.3008 38.2913 4.60539V4.56969C38.2913 2.10634 36.4348 0.606912 33.6145 0.606912H28.9377V13.1022ZM30.3479 7.4079V1.90999H33.5074C35.5245 1.90999 36.8633 2.83821 36.8633 4.62324V4.65894C36.8633 6.30118 35.5066 7.4079 33.436 7.4079H30.3479Z" fill="#C6AAC6"/>
<path d="M44.1109 11.567L40.755 3.87353H39.2377L43.4325 13.0665C42.8792 14.3695 42.3794 14.7979 41.5404 14.7979C40.9513 14.7979 40.5408 14.6908 40.0945 14.4588L39.6304 15.5477C40.2552 15.8511 40.8264 16.0118 41.594 16.0118C42.9684 16.0118 43.8788 15.3156 44.6642 13.4056L48.5377 3.87353H47.074L44.1109 11.567Z" fill="#C6AAC6"/>
<path d="M53.1629 13.2628C53.8233 13.2628 54.341 13.1379 54.823 12.8701V11.692C54.341 11.924 53.9661 12.0133 53.4842 12.0133C52.556 12.0133 51.9312 11.6206 51.9312 10.4782V5.08735H54.8587V3.87353H51.9312V1.08887H50.5567V3.87353H49.2715V5.08735H50.5567V10.6567C50.5567 12.5309 51.6635 13.2628 53.1629 13.2628Z" fill="#C6AAC6"/>
<path d="M56.6541 13.1022H58.0286V7.81846C58.0286 6.08697 59.2067 4.9267 60.7954 4.9267C62.4376 4.9267 63.348 5.99772 63.348 7.71135V13.1022H64.7225V7.3722C64.7225 5.1766 63.4015 3.67717 61.1881 3.67717C59.5994 3.67717 58.6533 4.48044 58.0286 5.48006V0.0714016H56.6541V13.1022Z" fill="#C6AAC6"/>
<path d="M71.2289 13.3164C74.0135 13.3164 76.0663 11.1208 76.0663 8.49677V8.46107C76.0663 5.85492 74.0492 3.67717 71.2646 3.67717C68.4621 3.67717 66.445 5.87277 66.445 8.49677V8.53247C66.445 11.1386 68.4621 13.3164 71.2289 13.3164ZM71.2646 12.0847C69.3189 12.0847 67.8551 10.4782 67.8551 8.49677V8.46107C67.8551 6.51538 69.2296 4.891 71.2289 4.891C73.1745 4.891 74.6561 6.51538 74.6561 8.49677V8.53247C74.6561 10.4603 73.2638 12.0847 71.2646 12.0847Z" fill="#C6AAC6"/>
<path d="M77.9186 13.1022H79.2931V7.81846C79.2931 6.08697 80.4712 4.9267 82.0599 4.9267C83.7021 4.9267 84.6125 5.99772 84.6125 7.71135V13.1022H85.987V7.3722C85.987 5.1766 84.6661 3.67717 82.4526 3.67717C80.8639 3.67717 79.9179 4.48044 79.2931 5.48006V3.87353H77.9186V13.1022Z" fill="#C6AAC6"/>
</svg>
