<svg width="777" height="690" viewBox="0 0 777 690" fill="none" xmlns="http://www.w3.org/2000/svg">
<mask id="mask0_1_2869" style="mask-type:alpha" maskUnits="userSpaceOnUse" x="30" y="-60" width="805" height="710">
<path d="M522.239 -60L483.785 12.0306L396.654 5.15961L450.563 74.0982L415.029 140.518L323.639 -0.566238L353.819 -49.6936L522.239 -60Z" fill="#89D3DF"/>
<path fill-rule="evenodd" clip-rule="evenodd" d="M834.866 323.401L834.865 323.401L762.216 473.301L702.831 397.148L739.458 349.282L678.372 365.772L702.831 397.148L762.216 473.301L637.117 483.379L578.462 392.797L346.032 455.781L255.86 648.51L142.565 649.999L142.564 650L30 541.324L74.0522 404.02L294.8 365.428L294.802 365.427L483.788 12.0304L522.242 -60L551.205 17.2982L496.807 133.418L632.128 306.566L632.129 306.567L793.492 278.51L834.865 323.4L834.866 323.401ZM151.691 508.344L229.573 487.273L190.39 560.562L190.389 560.563L151.691 508.344ZM460.665 210.945L396.657 347.677L533.68 323.743H533.923L460.665 210.945Z" fill="#89D3DF"/>
</mask>
<g mask="url(#mask0_1_2869)">
<g filter="url(#filter0_d_1_2869)">
<path d="M739.459 349.28L702.83 397.148L762.215 473.301L834.865 323.4L739.459 349.28Z" fill="#258B74"/>
<path d="M396.653 5.15988L323.639 -0.565918L415.029 140.518L450.562 74.0985L396.653 5.15988Z" fill="#63C1A0"/>
<path d="M762.217 473.302L702.831 397.148L678.371 365.771L632.129 306.566L631.885 306.681L632.129 306.566L496.808 133.418L460.666 210.945L533.924 323.744H533.681L578.463 392.797L637.118 483.379L669.975 440.321L637.118 483.379L762.217 473.302Z" fill="#63C1A0"/>
<path d="M151.691 508.344L30 541.324L142.564 650L190.389 560.563L151.691 508.344Z" fill="#331433"/>
<path d="M396.655 347.679L294.8 365.429L74.0522 404.021L30 541.325L151.691 508.345L229.573 487.274L346.032 455.782L578.462 392.798L533.679 323.745L396.655 347.679Z" fill="#E01A59"/>
<path d="M793.491 278.51L632.129 306.567L678.372 365.772L739.46 349.281L834.866 323.401L793.491 278.51Z" fill="#E01A59"/>
<path d="M551.206 17.299L483.789 12.0312L450.567 74.0989L415.034 140.518L294.803 365.428L396.658 347.678L460.668 210.946L496.81 133.418L551.206 17.299Z" fill="#ECB32D"/>
<path d="M229.576 487.272L190.391 560.563L209.618 586.443L190.391 560.563L142.566 650L255.861 648.511L346.034 455.781L229.576 487.272Z" fill="#ECB32D"/>
<path d="M483.786 12.0306L522.241 -60L353.82 -49.6936L396.656 5.15959L483.786 12.0306Z" fill="#89D3DF"/>
<path d="M353.818 -49.6934L323.639 -0.56599L396.653 5.15981L353.818 -49.6934Z" fill="#89D3DF"/>
<path d="M551.204 17.2983L522.242 -60L483.787 12.0306L551.204 17.2983Z" fill="#89D3DF"/>
</g>
<path fill-rule="evenodd" clip-rule="evenodd" d="M30 -8H780V650H30V-8Z" fill="url(#paint0_linear_1_2869)"/>
</g>
<defs>
<filter id="filter0_d_1_2869" x="0" y="-80" width="864.866" height="770" filterUnits="userSpaceOnUse" color-interpolation-filters="sRGB">
<feFlood flood-opacity="0" result="BackgroundImageFix"/>
<feColorMatrix in="SourceAlpha" type="matrix" values="0 0 0 0 0 0 0 0 0 0 0 0 0 0 0 0 0 0 127 0" result="hardAlpha"/>
<feOffset dy="10"/>
<feGaussianBlur stdDeviation="15"/>
<feColorMatrix type="matrix" values="0 0 0 0 0.0941176 0 0 0 0 0.0941176 0 0 0 0 0.0941176 0 0 0 0.2 0"/>
<feBlend mode="normal" in2="BackgroundImageFix" result="effect1_dropShadow_1_2869"/>
<feBlend mode="normal" in="SourceGraphic" in2="effect1_dropShadow_1_2869" result="shape"/>
</filter>
<linearGradient id="paint0_linear_1_2869" x1="701.107" y1="69.5535" x2="-44.2981" y2="444.596" gradientUnits="userSpaceOnUse">
<stop offset="0.145833" stop-color="#240E25" stop-opacity="0.89"/>
<stop offset="1" stop-color="#240E25" stop-opacity="0"/>
</linearGradient>
</defs>
</svg>
